<?xml version="1.0" standalone="no"?>
<!DOCTYPE svg PUBLIC "-//W3C//DTD SVG 20010904//EN"
 "http://www.w3.org/TR/2001/REC-SVG-20010904/DTD/svg10.dtd">
<svg version="1.0" xmlns="http://www.w3.org/2000/svg"
 width="65.000000pt" height="45.000000pt" viewBox="0 0 65.000000 45.000000"
 preserveAspectRatio="xMidYMid meet">
<metadata>
Created by potrace 1.15, written by Peter Selinger 2001-2017
</metadata>
<g transform="translate(0.000000,45.000000) scale(0.100000,-0.100000)">
<path d="M107 405 c-9 -9 -21 -33 -26 -53 -29 -107 -50 -206 -45 -214 3 -4 14
-8 24 -8 13 0 25 -12 34 -34 39 -93 167 -96 205 -4 18 43 36 49 45 15 3 -12
19 -35 35 -51 56 -54 147 -33 180 42 9 19 22 32 33 32 10 0 21 6 23 13 3 6 -8
66 -24 131 -29 121 -44 146 -83 146 -26 0 -22 -19 6 -30 27 -10 26 -9 55 -133
24 -103 24 -97 12 -97 -6 0 -16 12 -23 27 -42 85 -158 87 -206 2 -22 -37 -36
-37 -52 1 -27 65 -129 82 -181 31 -16 -16 -29 -37 -29 -45 0 -9 -7 -16 -15
-16 -11 0 -14 7 -9 24 3 13 15 63 27 112 19 75 25 89 45 94 13 3 24 10 25 15
3 17 -40 17 -56 0z m157 -205 c32 -31 28 -96 -7 -126 -39 -33 -81 -31 -118 5
-40 40 -39 82 1 123 27 26 36 30 67 25 20 -4 46 -16 57 -27z m229 18 c32 -17
46 -39 47 -75 0 -45 -9 -62 -42 -79 -39 -20 -92 -11 -113 19 -18 26 -20 87 -2
109 28 36 72 47 110 26z"/>
</g>
</svg>
